<?xml version="1.0" encoding="utf-8"?>
<!-- Generator: Adobe Illustrator 23.1.0, SVG Export Plug-In . SVG Version: 6.00 Build 0)  -->
<svg version="1.1" id="圖層_1" xmlns="http://www.w3.org/2000/svg" xmlns:xlink="http://www.w3.org/1999/xlink" x="0px" y="0px"
	 viewBox="0 0 454.59 100.6" style="enable-background:new 0 0 454.59 100.6;" xml:space="preserve">
<style type="text/css">
	.st0{fill:#BC2C2F;}
	.st1{fill:#DD9E5A;}
	.st2{fill:#FFFFFF;}
	.st3{fill:none;stroke:#FFFFFF;stroke-width:2;stroke-miterlimit:10;}
	.st4{fill:#D9B74D;}
</style>
<g>
	<path class="st4" d="M40.28,22.18h283.54c5.4,0,9.78,4.38,9.78,9.78v0c0,5.4-4.38,9.78-9.78,9.78H223.06
		c-5.4,0-9.78,4.38-9.78,9.78v0c0,5.4,4.38,9.78,9.78,9.78h191.58c5.3,0,10.05,3.97,10.32,9.26c0.3,5.64-4.19,10.31-9.77,10.31
		H115.21c-5.3,0-10.05-3.97-10.32-9.26c-0.3-5.64,4.19-10.31,9.77-10.31h23.36c5.4,0,9.78-4.38,9.78-9.78s-4.38-9.78-9.78-9.78
		H40.28c-5.4,0-9.78-4.38-9.78-9.78C30.5,26.56,34.88,22.18,40.28,22.18z"/>
</g>
</svg>
