<?xml version="1.0" encoding="utf-8"?>
<!-- Generator: Adobe Illustrator 23.1.0, SVG Export Plug-In . SVG Version: 6.00 Build 0)  -->
<svg version="1.1" id="圖層_1" xmlns="http://www.w3.org/2000/svg" xmlns:xlink="http://www.w3.org/1999/xlink" x="0px" y="0px"
	 viewBox="0 0 400 175.56" style="enable-background:new 0 0 400 175.56;" xml:space="preserve">
<style type="text/css">
	.st0{fill:#BC2C2F;}
	.st1{fill:#DD9E5A;}
	.st2{fill:#FFFFFF;}
	.st3{fill:none;stroke:#FFFFFF;stroke-width:2;stroke-miterlimit:10;}
	.st4{fill:#D9B74D;}
</style>
<g>
	<path class="st2" d="M261.01,129.53h-27.68c-5.61,0-10.15,4.54-10.15,10.15c0,5.61,4.54,10.15,10.15,10.15h27.68
		c5.61,0,10.15-4.54,10.15-10.15C271.16,134.08,266.62,129.53,261.01,129.53z"/>
	<path class="st2" d="M55.24,46.77H27.56c-5.61,0-10.15,4.54-10.15,10.15c0,5.61,4.54,10.15,10.15,10.15h27.68
		c5.61,0,10.15-4.54,10.15-10.15C65.39,51.32,60.85,46.77,55.24,46.77z"/>
	<path class="st2" d="M372.44,47.85H247.15c5.61,0,10.15-4.54,10.15-10.15c0-1.75-0.44-3.4-1.22-4.84
		c-1.72-3.17-5.07-5.31-8.93-5.31h-74.16c-3.86,0-7.21,2.15-8.93,5.31c-0.78,1.44-1.22,3.09-1.22,4.84
		c0,5.61,4.54,10.15,10.15,10.15h-62.72c-5.61,0-10.15,4.54-10.15,10.15c0,5.61,4.54,10.15,10.15,10.15h19.92
		c5.61,0,10.15,4.54,10.15,10.15c0,5.61-4.54,10.15-10.15,10.15H69.91H55.49c-5.61,0-10.15,4.54-10.15,10.15
		c0,5.61,4.54,10.15,10.15,10.15h14.41h51.69c-5.61,0-10.15,4.54-10.15,10.15c0,5.61,4.54,10.15,10.15,10.15h62.17
		c5.61,0,10.15-4.54,10.15-10.15c0-5.61-4.54-10.15-10.15-10.15h151.78c5.61,0,10.15-4.54,10.15-10.15
		c0-5.61-4.54-10.15-10.15-10.15h-69.3c-5.61,0-10.15-4.54-10.15-10.15c0-5.61,4.54-10.15,10.15-10.15h106.2
		c5.61,0,10.15-4.54,10.15-10.15C382.59,52.39,378.05,47.85,372.44,47.85z"/>
</g>
</svg>
