<?xml version="1.0" encoding="utf-8"?>
<!-- Generator: Adobe Illustrator 23.1.0, SVG Export Plug-In . SVG Version: 6.00 Build 0)  -->
<svg version="1.1" id="圖層_1" xmlns="http://www.w3.org/2000/svg" xmlns:xlink="http://www.w3.org/1999/xlink" x="0px" y="0px"
	 viewBox="0 0 313.41 104.68" style="enable-background:new 0 0 313.41 104.68;" xml:space="preserve">
<style type="text/css">
	.st0{fill:#BC2C2F;}
	.st1{fill:#DD9E5A;}
	.st2{fill:#FFFFFF;}
	.st3{fill:none;stroke:#FFFFFF;stroke-width:2;stroke-miterlimit:10;}
	.st4{fill:#D9B74D;}
</style>
<path class="st3" d="M277.93,62.49h-44c-5.61,0-10.15-4.54-10.15-10.15c0-5.61,4.54-10.15,10.15-10.15h6.48
	c5.6,0,10.13-4.54,10.13-10.15c0-5.61-4.54-10.15-10.13-10.15H35.47c-5.6,0-10.13,4.54-10.13,10.15c0,5.61,4.54,10.15,10.13,10.15
	h85c5.61,0,10.15,4.54,10.15,10.15c0,5.61-4.54,10.15-10.15,10.15H95.51c-5.61,0-10.15,4.54-10.15,10.15
	c0,5.61,4.54,10.15,10.15,10.15h182.41c5.61,0,10.15-4.54,10.15-10.15C288.08,67.04,283.53,62.49,277.93,62.49z"/>
</svg>
